<svg width="40.000000" height="40.000000" viewBox="0 0 40 40" fill="none" xmlns="http://www.w3.org/2000/svg" xmlns:xlink="http://www.w3.org/1999/xlink">
	<defs/>
	<circle id="Ellipse 8" cx="20.000000" cy="20.000000" r="20.000000" fill="#EE26C2" fill-opacity="1.000000"/>
	<rect id="convert-card" rx="0.000000" width="23.000000" height="23.000000" transform="translate(8.500000 8.500000)" fill="#FFFFFF" fill-opacity="0"/>
	<path id="Line" d="M20 13.56L30 13.56" stroke="#FFFFFF" stroke-opacity="1.000000" stroke-width="1.500000" stroke-linejoin="round" stroke-linecap="round"/>
	<path id="Vector" d="M23.64 18.5L22.22 18.5C20.43 18.5 20 18.06 20 16.29L20 12.2C20 10.44 20.43 10 22.22 10L27.78 10C29.56 10 30 10.44 30 12.2L30 16.31C30 18.07 29.56 18.51 27.78 18.51" stroke="#FFFFFF" stroke-opacity="1.000000" stroke-width="1.500000" stroke-linejoin="round" stroke-linecap="round"/>
	<path id="Line" d="M10 25.06L20 25.06" stroke="#FFFFFF" stroke-opacity="1.000000" stroke-width="1.500000" stroke-linejoin="round" stroke-linecap="round"/>
	<path id="Vector" d="M13.5 30L12.22 30C10.43 30 10 29.56 10 27.8L10 23.7C10 21.94 10.43 21.5 12.22 21.5L17.78 21.5C19.56 21.5 20 21.94 20 23.7L20 27.81C20 29.57 19.56 30.01 17.78 30.01" stroke="#FFFFFF" stroke-opacity="1.000000" stroke-width="1.500000" stroke-linejoin="round" stroke-linecap="round"/>
	<path id="Vector" d="M30 23C30 26.87 26.87 30 23 30L24.05 28.25" stroke="#FFFFFF" stroke-opacity="1.000000" stroke-width="1.500000" stroke-linejoin="round" stroke-linecap="round"/>
	<path id="Vector" d="M10 17C10 13.13 13.12 10 17 10L15.95 11.75" stroke="#FFFFFF" stroke-opacity="1.000000" stroke-width="1.500000" stroke-linejoin="round" stroke-linecap="round"/>
	<g opacity="0.000000"/>
</svg>